<svg width="28" height="27" viewBox="0 0 28 27" fill="none" xmlns="http://www.w3.org/2000/svg">
<path d="M1.20999 11.1953C0.801764 10.8088 1.02351 10.1103 1.57566 10.0433L9.39941 9.09336C9.62445 9.06605 9.81991 8.9214 9.91483 8.71076L13.2148 1.38766C13.4477 0.870845 14.1654 0.870745 14.3983 1.38757L17.6983 8.71061C17.7932 8.92124 17.9874 9.06629 18.2124 9.0936L26.0366 10.0433C26.5888 10.1103 26.8099 10.8091 26.4017 11.1955L20.618 16.6713C20.4516 16.8288 20.3776 17.0632 20.4217 17.2907L21.9567 25.2006C22.0651 25.7589 21.4847 26.1914 20.9995 25.9134L14.1248 21.9734C13.927 21.8601 13.6868 21.8606 13.489 21.9739L6.6136 25.9124C6.12842 26.1904 5.54695 25.7589 5.65531 25.2006L7.19052 17.2912C7.23469 17.0637 7.1608 16.8288 6.99443 16.6713L1.20999 11.1953Z" fill="#FBE722" stroke="#EDDD3C" stroke-linecap="round" stroke-linejoin="round"/>
</svg>
