<svg width="73" height="17" viewBox="0 0 73 17" fill="none" xmlns="http://www.w3.org/2000/svg">
<path d="M0.0400001 2.488L2.424 2.104V4.584H5.288V6.568H2.424V9.528C2.424 10.0293 2.50933 10.4293 2.68 10.728C2.86133 11.0267 3.21867 11.176 3.752 11.176C4.008 11.176 4.26933 11.1547 4.536 11.112C4.81333 11.0587 5.064 10.9893 5.288 10.904L5.624 12.76C5.336 12.8773 5.016 12.9787 4.664 13.064C4.312 13.1493 3.88 13.192 3.368 13.192C2.71733 13.192 2.17867 13.1067 1.752 12.936C1.32533 12.7547 0.984 12.5093 0.728 12.2C0.472 11.88 0.290667 11.496 0.184 11.048C0.0880001 10.6 0.0400001 10.104 0.0400001 9.56V2.488ZM14.7889 8.776C14.7889 9.43733 14.6929 10.0453 14.5009 10.6C14.3089 11.144 14.0315 11.6133 13.6689 12.008C13.3062 12.392 12.8689 12.6907 12.3569 12.904C11.8555 13.1173 11.2902 13.224 10.6609 13.224C10.0422 13.224 9.47688 13.1173 8.96488 12.904C8.46354 12.6907 8.03154 12.392 7.66888 12.008C7.30621 11.6133 7.02354 11.144 6.82088 10.6C6.61821 10.0453 6.51688 9.43733 6.51688 8.776C6.51688 8.11467 6.61821 7.512 6.82088 6.968C7.03421 6.424 7.32221 5.96 7.68488 5.576C8.05821 5.192 8.49554 4.89333 8.99688 4.68C9.50888 4.46667 10.0635 4.36 10.6609 4.36C11.2689 4.36 11.8235 4.46667 12.3249 4.68C12.8369 4.89333 13.2742 5.192 13.6369 5.576C13.9995 5.96 14.2822 6.424 14.4849 6.968C14.6875 7.512 14.7889 8.11467 14.7889 8.776ZM12.3569 8.776C12.3569 8.04 12.2075 7.464 11.9089 7.048C11.6209 6.62133 11.2049 6.408 10.6609 6.408C10.1169 6.408 9.69554 6.62133 9.39688 7.048C9.09821 7.464 8.94888 8.04 8.94888 8.776C8.94888 9.512 9.09821 10.0987 9.39688 10.536C9.69554 10.9627 10.1169 11.176 10.6609 11.176C11.2049 11.176 11.6209 10.9627 11.9089 10.536C12.2075 10.0987 12.3569 9.512 12.3569 8.776ZM19.9956 13.16C19.3023 13.1493 18.737 13.0747 18.2996 12.936C17.873 12.7973 17.5316 12.6053 17.2756 12.36C17.0303 12.104 16.8596 11.8 16.7636 11.448C16.6783 11.0853 16.6356 10.68 16.6356 10.232V0.967999L19.0196 0.584V9.752C19.0196 9.96533 19.0356 10.1573 19.0676 10.328C19.0996 10.4987 19.1583 10.6427 19.2436 10.76C19.3396 10.8773 19.473 10.9733 19.6436 11.048C19.8143 11.1227 20.0436 11.1707 20.3316 11.192L19.9956 13.16ZM21.2981 8.856C21.2981 8.10933 21.4101 7.45867 21.6341 6.904C21.8688 6.33867 22.1728 5.86933 22.5461 5.496C22.9195 5.12267 23.3461 4.84 23.8261 4.648C24.3168 4.456 24.8181 4.36 25.3301 4.36C26.5248 4.36 27.4688 4.728 28.1621 5.464C28.8555 6.18933 29.2021 7.26133 29.2021 8.68C29.2021 8.81867 29.1968 8.97333 29.1861 9.144C29.1755 9.304 29.1648 9.448 29.1541 9.576H23.7461C23.7995 10.0667 24.0288 10.456 24.4341 10.744C24.8395 11.032 25.3835 11.176 26.0661 11.176C26.5035 11.176 26.9301 11.1387 27.3461 11.064C27.7728 10.9787 28.1195 10.8773 28.3861 10.76L28.7061 12.696C28.5781 12.76 28.4075 12.824 28.1941 12.888C27.9808 12.952 27.7408 13.0053 27.4741 13.048C27.2181 13.1013 26.9408 13.144 26.6421 13.176C26.3435 13.208 26.0448 13.224 25.7461 13.224C24.9888 13.224 24.3275 13.112 23.7621 12.888C23.2075 12.664 22.7435 12.36 22.3701 11.976C22.0075 11.5813 21.7355 11.1173 21.5541 10.584C21.3835 10.0507 21.2981 9.47467 21.2981 8.856ZM26.8981 7.944C26.8875 7.74133 26.8501 7.544 26.7861 7.352C26.7328 7.16 26.6421 6.98933 26.5141 6.84C26.3968 6.69067 26.2421 6.568 26.0501 6.472C25.8688 6.376 25.6395 6.328 25.3621 6.328C25.0955 6.328 24.8661 6.376 24.6741 6.472C24.4821 6.55733 24.3221 6.67467 24.1941 6.824C24.0661 6.97333 23.9648 7.14933 23.8901 7.352C23.8261 7.544 23.7781 7.74133 23.7461 7.944H26.8981ZM36.4339 8.728C36.4339 7.192 35.8685 6.424 34.7379 6.424C34.4925 6.424 34.2472 6.456 34.0019 6.52C33.7672 6.584 33.5752 6.664 33.4259 6.76V11.096C33.5432 11.1173 33.6925 11.1387 33.8739 11.16C34.0552 11.1707 34.2525 11.176 34.4659 11.176C35.1165 11.176 35.6072 10.952 35.9379 10.504C36.2685 10.056 36.4339 9.464 36.4339 8.728ZM38.8659 8.792C38.8659 9.464 38.7645 10.072 38.5619 10.616C38.3699 11.16 38.0872 11.624 37.7139 12.008C37.3405 12.392 36.8819 12.6907 36.3379 12.904C35.7939 13.1067 35.1752 13.208 34.4819 13.208C34.1939 13.208 33.8899 13.192 33.5699 13.16C33.2605 13.1387 32.9512 13.1067 32.6419 13.064C32.3432 13.0213 32.0552 12.9733 31.7779 12.92C31.5005 12.856 31.2552 12.792 31.0419 12.728V0.967999L33.4259 0.584V4.776C33.6925 4.65867 33.9699 4.568 34.2579 4.504C34.5459 4.44 34.8552 4.408 35.1859 4.408C35.7832 4.408 36.3112 4.51467 36.7699 4.728C37.2285 4.93067 37.6125 5.224 37.9219 5.608C38.2312 5.992 38.4659 6.456 38.6259 7C38.7859 7.53333 38.8659 8.13067 38.8659 8.792ZM43.0821 13H40.6981V4.584H43.0821V13ZM43.3061 2.152C43.3061 2.58933 43.1621 2.936 42.8741 3.192C42.5968 3.43733 42.2661 3.56 41.8821 3.56C41.4981 3.56 41.1621 3.43733 40.8741 3.192C40.5968 2.936 40.4581 2.58933 40.4581 2.152C40.4581 1.71467 40.5968 1.37333 40.8741 1.128C41.1621 0.871999 41.4981 0.743999 41.8821 0.743999C42.2661 0.743999 42.5968 0.871999 42.8741 1.128C43.1621 1.37333 43.3061 1.71467 43.3061 2.152ZM47.6591 11.736C47.6591 12.216 47.5045 12.584 47.1951 12.84C46.8965 13.0853 46.5551 13.208 46.1711 13.208C45.7871 13.208 45.4405 13.0853 45.1311 12.84C44.8325 12.584 44.6831 12.216 44.6831 11.736C44.6831 11.256 44.8325 10.8933 45.1311 10.648C45.4405 10.392 45.7871 10.264 46.1711 10.264C46.5551 10.264 46.8965 10.392 47.1951 10.648C47.5045 10.8933 47.6591 11.256 47.6591 11.736ZM56.6483 8.776C56.6483 9.43733 56.5523 10.0453 56.3603 10.6C56.1683 11.144 55.8909 11.6133 55.5283 12.008C55.1656 12.392 54.7283 12.6907 54.2163 12.904C53.7149 13.1173 53.1496 13.224 52.5203 13.224C51.9016 13.224 51.3363 13.1173 50.8243 12.904C50.3229 12.6907 49.8909 12.392 49.5283 12.008C49.1656 11.6133 48.8829 11.144 48.6803 10.6C48.4776 10.0453 48.3763 9.43733 48.3763 8.776C48.3763 8.11467 48.4776 7.512 48.6803 6.968C48.8936 6.424 49.1816 5.96 49.5443 5.576C49.9176 5.192 50.3549 4.89333 50.8563 4.68C51.3683 4.46667 51.9229 4.36 52.5203 4.36C53.1283 4.36 53.6829 4.46667 54.1843 4.68C54.6963 4.89333 55.1336 5.192 55.4963 5.576C55.8589 5.96 56.1416 6.424 56.3443 6.968C56.5469 7.512 56.6483 8.11467 56.6483 8.776ZM54.2163 8.776C54.2163 8.04 54.0669 7.464 53.7683 7.048C53.4803 6.62133 53.0643 6.408 52.5203 6.408C51.9763 6.408 51.5549 6.62133 51.2563 7.048C50.9576 7.464 50.8083 8.04 50.8083 8.776C50.8083 9.512 50.9576 10.0987 51.2563 10.536C51.5549 10.9627 51.9763 11.176 52.5203 11.176C53.0643 11.176 53.4803 10.9627 53.7683 10.536C54.0669 10.0987 54.2163 9.512 54.2163 8.776ZM63.567 6.696C63.3537 6.64267 63.103 6.58933 62.815 6.536C62.527 6.472 62.2177 6.44 61.887 6.44C61.7377 6.44 61.5563 6.456 61.343 6.488C61.1403 6.50933 60.9857 6.536 60.879 6.568V13H58.495V5.032C58.9217 4.88267 59.423 4.744 59.999 4.616C60.5857 4.47733 61.2363 4.408 61.951 4.408C62.079 4.408 62.2337 4.41867 62.415 4.44C62.5963 4.45067 62.7777 4.472 62.959 4.504C63.1403 4.52533 63.3217 4.55733 63.503 4.6C63.6843 4.632 63.839 4.67467 63.967 4.728L63.567 6.696ZM67.1208 8.52C67.1208 9.85333 67.6594 10.52 68.7368 10.52C68.9821 10.52 69.2114 10.488 69.4248 10.424C69.6381 10.36 69.8194 10.2853 69.9688 10.2V6.392C69.8514 6.37067 69.7128 6.35467 69.5528 6.344C69.3928 6.32267 69.2061 6.312 68.9928 6.312C68.3634 6.312 67.8941 6.52 67.5848 6.936C67.2754 7.352 67.1208 7.88 67.1208 8.52ZM72.3528 11.944C72.3528 13.32 72.0008 14.3387 71.2968 15C70.6034 15.672 69.5261 16.008 68.0648 16.008C67.5528 16.008 67.0408 15.96 66.5288 15.864C66.0168 15.7787 65.5421 15.6613 65.1048 15.512L65.5208 13.512C65.8941 13.6613 66.2834 13.7787 66.6888 13.864C67.1048 13.9493 67.5741 13.992 68.0968 13.992C68.7794 13.992 69.2594 13.8427 69.5368 13.544C69.8248 13.2453 69.9688 12.8613 69.9688 12.392V12.088C69.7128 12.2053 69.4461 12.296 69.1688 12.36C68.9021 12.4133 68.6088 12.44 68.2888 12.44C67.1261 12.44 66.2354 12.0987 65.6168 11.416C64.9981 10.7227 64.6888 9.75733 64.6888 8.52C64.6888 7.90133 64.7848 7.34133 64.9768 6.84C65.1688 6.328 65.4461 5.89067 65.8088 5.528C66.1821 5.16533 66.6354 4.888 67.1688 4.696C67.7021 4.49333 68.3048 4.392 68.9768 4.392C69.2648 4.392 69.5581 4.408 69.8568 4.44C70.1661 4.46133 70.4701 4.49333 70.7688 4.536C71.0674 4.57867 71.3501 4.632 71.6168 4.696C71.8941 4.74933 72.1394 4.808 72.3528 4.872V11.944Z" fill="black"/>
</svg>
