<svg width="31" height="31" viewBox="0 0 31 31" fill="none" xmlns="http://www.w3.org/2000/svg">
<path d="M1.40515 13.0744C0.948328 12.6519 1.19648 11.8882 1.81437 11.815L10.5696 10.7765C10.8214 10.7466 11.0401 10.5885 11.1464 10.3582L14.8392 2.35228C15.0998 1.78727 15.903 1.78716 16.1637 2.35217L19.8565 10.3581C19.9627 10.5883 20.18 10.7469 20.4318 10.7768L29.1875 11.815C29.8054 11.8882 30.0529 12.6522 29.5961 13.0746L23.1238 19.0611C22.9376 19.2332 22.8548 19.4895 22.9042 19.7382L24.6219 28.3857C24.7432 28.996 24.0936 29.4688 23.5507 29.1649L15.8575 24.8575C15.6362 24.7336 15.3674 24.7342 15.1461 24.8581L7.4521 29.1638C6.90915 29.4678 6.25846 28.996 6.37972 28.3857L8.09771 19.7388C8.14713 19.49 8.06445 19.2332 7.87827 19.061L1.40515 13.0744Z" stroke="black" stroke-width="2" stroke-linecap="round" stroke-linejoin="round"/>
</svg>
