<svg width="26" height="25" viewBox="0 0 26 25" fill="none" xmlns="http://www.w3.org/2000/svg">
<path d="M9.25 14.375L16.75 18.125M16.75 6.875L9.25 10.625M20.5 23.75C18.4289 23.75 16.75 22.0711 16.75 20C16.75 17.9289 18.4289 16.25 20.5 16.25C22.5711 16.25 24.25 17.9289 24.25 20C24.25 22.0711 22.5711 23.75 20.5 23.75ZM5.5 16.25C3.42893 16.25 1.75 14.5711 1.75 12.5C1.75 10.4289 3.42893 8.75 5.5 8.75C7.57107 8.75 9.25 10.4289 9.25 12.5C9.25 14.5711 7.57107 16.25 5.5 16.25ZM20.5 8.75C18.4289 8.75 16.75 7.07107 16.75 5C16.75 2.92893 18.4289 1.25 20.5 1.25C22.5711 1.25 24.25 2.92893 24.25 5C24.25 7.07107 22.5711 8.75 20.5 8.75Z" stroke="#989898" stroke-width="2" stroke-linecap="round" stroke-linejoin="round"/>
</svg>
